<svg xmlns="http://www.w3.org/2000/svg" viewBox="0 0 500 300">
  <defs>
    <style>
      .cls-1 {
        fill: #231f20;
      }

      .cls-2, .cls-3 {
        fill: none;
        stroke: #231f20;
      }

      .cls-2 {
        stroke-miterlimit: 10;
        stroke-width: 2px;
      }

      .cls-3 {
        stroke-width: 11px;
      }
    </style>
  </defs>
  <g id="Слой_2" data-name="Слой 2">
    <g>
      <g>
        <path class="cls-1" d="M123.63,159.75h2.12v19.82h.9c.35-.63,1.15-2,2.4-4l1.11-1.79,8.51-14.06h4.23v21.52h-2.13V161.44h-.89l-.84,1.48q-1.84,3.3-2.28,4l-8.91,14.34h-4.22Z"/>
        <path class="cls-1" d="M148.54,159.75h2.13v21.52h-2.13Zm.43,9.56h16.65v1.91H149Zm15.79-9.56h2.09v21.52h-2.09Z"/>
        <path class="cls-1" d="M183.1,181.76q-5.92,0-9-2.73c-2-1.82-3-4.63-3-8.43s1-6.61,3-8.43,5-2.73,9-2.73a15.21,15.21,0,0,1,8.26,2,8.1,8.1,0,0,1,3.67,6.17h-2.25a6.39,6.39,0,0,0-2.94-4.69,13.51,13.51,0,0,0-6.74-1.38,13.36,13.36,0,0,0-5.77,1,6.14,6.14,0,0,0-3,3,14.66,14.66,0,0,0,0,10.06,6.12,6.12,0,0,0,3,3,16.76,16.76,0,0,0,12.54-.37,6.2,6.2,0,0,0,2.91-4.67H195a7.91,7.91,0,0,1-3.65,6.15A15.33,15.33,0,0,1,183.1,181.76Z"/>
        <path class="cls-1" d="M197.1,159.75h17.79v2h-7.83v19.49h-2.13V161.78H197.1Z"/>
        <path class="cls-1" d="M218.31,159.75h2.13v19.82h.89c.35-.63,1.15-2,2.41-4l1.11-1.79,8.5-14.06h4.23v21.52h-2.13V161.44h-.89l-.83,1.48q-1.86,3.3-2.29,4l-8.91,14.34h-4.22Z"/>
        <path class="cls-1" d="M241,159.75h17.79v2H251v19.49h-2.13V161.78H241Z"/>
        <path class="cls-1" d="M270.26,177.26V179h-1.6l-9.38-19.21h2.5l5.43,11.47c.45.94.93,1.94,1.45,3,.24.53.49,1,.74,1.54s.48,1,.71,1.51Zm3.7-3.18a36.49,36.49,0,0,1-2.39,4.68,5.19,5.19,0,0,1-2.2,1.94,9.85,9.85,0,0,1-3.8.57h-2v-2.1h2.25a6.91,6.91,0,0,0,2.53-.38,3.26,3.26,0,0,0,1.39-1,12.28,12.28,0,0,0,1-1.81c.15-.29.28-.57.4-.85l.37-.82c.19-.43.4-.9.64-1.42s.51-1.1.81-1.76l5.18-11.37h2.28Z"/>
        <path class="cls-1" d="M281.39,159.75h17.79v2h-7.83v19.49h-2.13V161.78h-7.83Z"/>
        <path class="cls-1" d="M309.54,179.29h.74a2.2,2.2,0,0,0,2-1.32,9.59,9.59,0,0,0,1-3c.2-1.11.36-2.36.48-3.76l0-.28c.19-1.91.37-4.67.56-8.26,0-.52.07-1,.09-1.51s0-1,.06-1.42h14.12v19.54h2.53q-.12,2.16-.15,3.3l-.13,3.64H328.9v-5H311.67l-.19,5h-1.94Zm17,0V161.72h-10l-.18,3.95c-.06,1.07-.19,2.81-.37,5.24l0,.4a38.79,38.79,0,0,1-.73,4.87,6.59,6.59,0,0,1-1.52,3.11Z"/>
        <path class="cls-1" d="M334.76,159.75h2.12v19.82h.9c.35-.63,1.15-2,2.4-4l1.11-1.79,8.51-14.06H354v21.52H351.9V161.44H351l-.83,1.48q-1.85,3.3-2.28,4L339,181.27h-4.22Z"/>
        <path class="cls-1" d="M367.72,181.7a12.21,12.21,0,0,1-6.56-1.6,7.52,7.52,0,0,1-3.34-4.91h2.25a5.1,5.1,0,0,0,2.62,3.41,10.58,10.58,0,0,0,5.06,1.1q3.86,0,5.56-1.11a3.83,3.83,0,0,0,1.71-3.46,3.78,3.78,0,0,0-1.21-3.06,5.44,5.44,0,0,0-3.6-1h-4.78l.28-1.91h4.75a4.25,4.25,0,0,0,2.87-.89,3.33,3.33,0,0,0,1-2.62,3.46,3.46,0,0,0-1.68-3.3,9.22,9.22,0,0,0-4.57-1,12.84,12.84,0,0,0-4.92.82,4.55,4.55,0,0,0-2.7,2.91h-2.16a6.44,6.44,0,0,1,3.3-4.19,14.11,14.11,0,0,1,6.48-1.3,12.05,12.05,0,0,1,6.25,1.36,4.85,4.85,0,0,1,2.22,4.5,4.64,4.64,0,0,1-.77,2.78,5.12,5.12,0,0,1-2,1.66l.15-.46v1l-.09-.5a5.2,5.2,0,0,1,2.38,1.78,5.44,5.44,0,0,1,.95,3.37,5.7,5.7,0,0,1-2.33,5Q372.55,181.7,367.72,181.7Z"/>
        <path class="cls-1" d="M395,175.19l1.45.87H381.84l1.41-.77-2.34,6h-2.37l8.54-21.52h4.16l8.54,21.52h-2.37ZM382.67,174h12.92l-.68.87-2.71-6.94c-.87-2.18-1.29-3.25-1.27-3.21-.26-.68-.52-1.31-.75-1.89s-.44-1.13-.6-1.62l2.37.27h-5.33l2.12-.27c-.31,1-1,2.79-2.06,5.48-.09.21-.17.42-.25.62s-.16.41-.25.62l-2.8,7.12Z"/>
        <path class="cls-1" d="M402.83,159.75H405v19.82h.89c.35-.63,1.15-2,2.41-4l1.11-1.79,8.51-14.06h4.22v21.52H420V161.44h-.89l-.83,1.48q-1.86,3.3-2.28,4l-8.91,14.34h-4.23Zm9.5-1.33a7.6,7.6,0,0,1-4.46-1.06,3.94,3.94,0,0,1-1.52-3.28h1.75a2.55,2.55,0,0,0,1.11,2.06,8.11,8.11,0,0,0,6.22,0,2.58,2.58,0,0,0,1.15-2.06h1.76a3.92,3.92,0,0,1-1.53,3.28A7.63,7.63,0,0,1,412.33,158.42Z"/>
        <path class="cls-1" d="M427.71,159.75h2.13v21.52h-2.13Zm.43,9.56h16.65v1.91H428.14Zm15.79-9.56H446v21.52h-2.1Z"/>
        <path class="cls-1" d="M465.57,175.19l1.45.87H452.38l1.42-.77-2.35,6h-2.37l8.54-21.52h4.16l8.54,21.52H468ZM453.21,174h12.92l-.68.87-2.71-6.94c-.87-2.18-1.29-3.25-1.27-3.21-.26-.68-.52-1.31-.75-1.89s-.44-1.13-.6-1.62l2.37.27h-5.33l2.12-.27q-.45,1.44-2.06,5.48c-.08.21-.17.42-.25.62s-.16.41-.25.62l-2.8,7.12Z"/>
        <path class="cls-1" d="M123.63,192.39h2.12v19.83h.9q.52-1,2.4-4l1.11-1.79,8.51-14.06h4.23v21.52h-2.13V194.09h-.89l-.84,1.48c-1.23,2.2-2,3.53-2.28,4l-8.91,14.33h-4.22Z"/>
        <path class="cls-1" d="M165.93,209.91v1.69h-1.6L155,192.39h2.5l5.43,11.47c.45.95.93,1.94,1.45,3,.24.54.49,1.05.73,1.54s.49,1,.71,1.52Zm3.7-3.18a36.82,36.82,0,0,1-2.39,4.67,5.09,5.09,0,0,1-2.21,1.94,9.75,9.75,0,0,1-3.79.57h-2v-2.09h2.25a6.68,6.68,0,0,0,2.53-.39,3.3,3.3,0,0,0,1.38-1,11.53,11.53,0,0,0,1-1.82c.14-.29.28-.57.4-.85l.37-.81c.19-.44.4-.91.63-1.42l.82-1.76,5.18-11.38h2.28Z"/>
        <path class="cls-1" d="M179.25,192.39h11.68a8.21,8.21,0,0,1,5.5,1.61,6.17,6.17,0,0,1,1.87,5q0,3.54-2,5.06c-1.32,1-3.3,1.51-6,1.51H180.6l.07-2H191c1.93,0,3.29-.38,4.06-1.14a5.75,5.75,0,0,0,0-6.9c-.77-.76-2.13-1.14-4.06-1.14H180.33l1-1v20.56h-2.12Z"/>
        <path class="cls-1" d="M213,200.62a8.11,8.11,0,0,1,5.49,1.65,6.33,6.33,0,0,1,1.88,5c0,2.41-.67,4.12-2,5.12s-3.33,1.51-6,1.51H202V192.39h16.74v2.13H203.11l1-1.05v19.46l-1-1.05H213c1.93,0,3.29-.38,4.07-1.14a5.7,5.7,0,0,0,0-6.92c-.78-.78-2.14-1.16-4.07-1.16h-9.56v-2Z"/>
        <path class="cls-1" d="M238.1,207.84l1.45.86H224.91l1.42-.77-2.35,6h-2.37l8.54-21.52h4.16l8.54,21.52h-2.37Zm-12.36-1.23h12.92l-.68.86-2.71-6.94c-.87-2.18-1.29-3.24-1.27-3.2-.26-.68-.52-1.31-.75-1.9s-.44-1.13-.6-1.62l2.37.28h-5.33l2.12-.28c-.31,1-1,2.8-2.06,5.49-.08.2-.17.41-.25.62s-.16.41-.25.61l-2.8,7.12Z"/>
        <path class="cls-1" d="M245.9,192.39H248v21.52H245.9Zm.43,9.56H263v1.91H246.33Zm15.79-9.56h2.1v21.52h-2.1Z"/>
        <path class="cls-1" d="M269.83,192.39H272v19.83h.9q.52-1,2.4-4l1.11-1.79,8.51-14.06h4.23v21.52H287V194.09h-.89l-.84,1.48c-1.23,2.2-2,3.53-2.28,4l-8.91,14.33h-4.22Z"/>
        <path class="cls-1" d="M305.38,214.41q-5.92,0-9-2.73t-3-8.43q0-5.72,3-8.44t9-2.73a15.15,15.15,0,0,1,8.26,2,8.06,8.06,0,0,1,3.67,6.16h-2.25a6.38,6.38,0,0,0-2.95-4.68,13.35,13.35,0,0,0-6.73-1.39,13.51,13.51,0,0,0-5.77,1,6.1,6.1,0,0,0-3,3,14.53,14.53,0,0,0,0,10.07,6.08,6.08,0,0,0,3,3,13.36,13.36,0,0,0,5.77,1,13.51,13.51,0,0,0,6.76-1.4,6.2,6.2,0,0,0,2.92-4.67h2.25a8,8,0,0,1-3.66,6.15A15.36,15.36,0,0,1,305.38,214.41Z"/>
        <path class="cls-1" d="M319.37,192.39h17.79v2h-7.83v19.48H327.2V194.43h-7.83Z"/>
        <path class="cls-1" d="M340.58,192.39h2.13v19.83h.9q.52-1,2.4-4l1.11-1.79,8.51-14.06h4.22v21.52h-2.12V194.09h-.9l-.83,1.48c-1.23,2.2-2,3.53-2.28,4l-8.91,14.33h-4.23Z"/>
        <path class="cls-1" d="M365.5,192.39h2.12v21.52H365.5Zm3.6,9.44,10-9.44h2.47l-11.38,11-.12-1.33,11.72,11.87h-2.5L369,203.62h-2.34v-1.79Z"/>
        <path class="cls-1" d="M384.7,192.39h2.13v19.83h.9c.34-.64,1.15-2,2.4-4l1.11-1.79,8.51-14.06H404v21.52h-2.12V194.09H401l-.83,1.48c-1.23,2.2-2,3.53-2.28,4l-8.91,14.33H384.7Z"/>
      </g>
      <rect class="cls-2" x="21.06" y="100.78" width="79.03" height="79.03" rx="10.28"/>
      <g>
        <path class="cls-1" d="M32.8,127.92h2.32v23.52H32.8Z"/>
        <path class="cls-1" d="M51.23,127.92a19.79,19.79,0,0,1,7.33,1.15,8,8,0,0,1,4.19,3.72,14.66,14.66,0,0,1,1.38,6.89q0,6.16-3.06,9t-9.74,2.8h-10V127.92Zm.3,21.37a14.09,14.09,0,0,0,5.85-1,6.34,6.34,0,0,0,3.21-3.1,12.57,12.57,0,0,0,1-5.49,13.1,13.1,0,0,0-1-5.54,6.17,6.17,0,0,0-3.2-3.08,14.75,14.75,0,0,0-5.88-1H42.47l1.14-1.15v21.5l-1.14-1.14Z"/>
        <path class="cls-1" d="M68.41,127.92h2.32V142a11.88,11.88,0,0,0,.68,4.33A5,5,0,0,0,73.8,149a10.17,10.17,0,0,0,4.78.93,10.19,10.19,0,0,0,4.81-.93,4.9,4.9,0,0,0,2.34-2.62,12.53,12.53,0,0,0,.64-4.37v-14h2.29v14.56q0,5.06-2.44,7.26T78.52,152q-5.26,0-7.68-2.21t-2.43-7.26Z"/>
      </g>
      <g>
        <rect class="cls-1" x="122.42" y="98.74" width="10.64" height="39.05"/>
        <rect class="cls-1" x="159.37" y="98.77" width="10.64" height="39.05"/>
        <rect class="cls-1" x="187.61" y="98.77" width="10.64" height="39.05"/>
        <rect class="cls-1" x="188.12" y="83.89" width="9.89" height="39.5" transform="translate(296.71 -89.43) rotate(90)"/>
        <rect class="cls-1" x="216.3" y="98.77" width="10.64" height="39.05"/>
        <rect class="cls-1" x="262.89" y="98.74" width="10.64" height="39.05"/>
        <polygon class="cls-1" points="226.93 98.77 234.42 98.77 244.71 124.39 255.37 98.77 262.89 98.77 262.89 106.45 250.26 137.83 239.28 137.83 226.93 106.26 226.93 98.77"/>
        <polygon class="cls-1" points="143.94 137.95 133.06 137.79 149.05 98.77 159.37 98.77 143.94 137.95"/>
        <circle class="cls-1" cx="164.69" cy="90.2" r="5.19"/>
        <ellipse class="cls-3" cx="298.4" cy="118.02" rx="15.59" ry="15.62"/>
      </g>
    </g>
  </g>
</svg>
